<svg width="98" height="53" viewBox="0 0 98 53" fill="none" xmlns="http://www.w3.org/2000/svg">
<path fill-rule="evenodd" clip-rule="evenodd" d="M36.2832 1C35.7309 1 35.2832 1.44772 35.2832 2V6.27495C35.2832 6.82724 35.7309 7.27495 36.2832 7.27495H72.6102C82.7371 7.27495 90.6906 15.0716 90.6906 25.1644V25.1644C90.6906 25.45 90.9221 25.6815 91.2077 25.6815H96.4699C96.7554 25.6815 96.9869 25.45 96.9869 25.1644V25.1644C96.9869 11.6752 86.1449 1 72.6102 1H36.2832Z" fill="#6B7B84" stroke="#80949F" stroke-width="0.5"/>
<path fill-rule="evenodd" clip-rule="evenodd" d="M6.81947 26.1197V26.1197C6.81947 25.8776 6.62324 25.6814 6.38118 25.6814H0.877011C0.63495 25.6814 0.438721 25.8776 0.438721 26.1197V26.1197C0.438721 39.7691 10.662 51.0385 23.8814 51.7761L66.223 51.8138C66.7756 51.8143 67.2239 51.3665 67.2239 50.8138V46.2342C67.2239 45.6819 66.7762 45.2342 66.2239 45.2342H25.3392C15.103 45.2059 6.81947 36.6905 6.81947 26.1197Z" fill="#6B7B84" stroke="#80949F" stroke-width="0.5"/>
<path fill-rule="evenodd" clip-rule="evenodd" d="M27.8542 40.2001C30.593 40.2001 32.8743 39.668 35.1276 38.5732L35.2831 38.4277V30.5932L34.4399 31.6726C32.8175 33.4455 30.6386 34.4214 28.1734 34.4214C23.5818 34.4214 18.9702 31.4536 18.9702 25.7815C18.9702 21.4952 22.1507 16.9397 28.012 16.9397C29.1815 16.9397 32.0257 17.2162 34.4358 19.7757L35.2831 20.8194V13.0205L35.1344 12.873C32.8385 11.7224 30.497 11.1631 27.8263 11.1631C23.2594 11.1631 19.6947 12.3654 16.8565 14.8367C15.0562 16.3854 12.0535 19.8562 12.0535 25.7C12.0535 30.0208 13.592 33.3952 16.8795 36.3221C19.9378 39.0039 23.3289 40.2001 27.8542 40.2001" fill="#6B7B84"/>
<path d="M27.8542 40.2001C30.593 40.2001 32.8743 39.668 35.1276 38.5732L35.2831 38.4277V30.5932L34.4399 31.6726C32.8175 33.4455 30.6386 34.4214 28.1734 34.4214C23.5818 34.4214 18.9702 31.4536 18.9702 25.7815C18.9702 21.4952 22.1507 16.9397 28.012 16.9397C29.1815 16.9397 32.0257 17.2162 34.4358 19.7757L35.2831 20.8194V13.0205L35.1344 12.873C32.8385 11.7224 30.497 11.1631 27.8263 11.1631C23.2594 11.1631 19.6947 12.3654 16.8565 14.8367C15.0562 16.3854 12.0535 19.8562 12.0535 25.7C12.0535 30.0208 13.592 33.3952 16.8795 36.3221C19.9378 39.0039 23.3289 40.2001 27.8542 40.2001" stroke="#80949F" stroke-width="0.5"/>
<path fill-rule="evenodd" clip-rule="evenodd" d="M47.6239 17.6964H48.9882C50.2397 17.6964 51.6661 17.7647 52.7456 18.5006C53.2728 18.8771 54.1572 19.7488 54.1572 21.3322C54.1572 22.5022 53.6402 23.5513 52.7861 24.206C51.6911 25.0008 50.3896 24.9552 49.3437 24.9552H47.6239V17.6964ZM50.6896 30.2256C53.921 30.2256 56.4504 29.2935 58.2069 27.5375C60.3676 25.3813 60.6906 22.415 60.6906 20.8513C60.6906 19.178 60.2939 15.9143 57.6338 13.5512C55.4534 11.6405 53.1269 11.1631 49.8451 11.1631H41.0906V40.2001H47.7492V30.2256H50.6896V30.2256Z" fill="#6B7B84"/>
<path d="M47.6239 17.6964V17.4464H47.3739V17.6964H47.6239ZM52.7456 18.5006L52.891 18.2971L52.8864 18.294L52.7456 18.5006ZM52.7861 24.206L52.933 24.4083L52.9382 24.4044L52.7861 24.206ZM47.6239 24.9552H47.3739V25.2052H47.6239V24.9552ZM58.2069 27.5375L58.0303 27.3606L58.0302 27.3607L58.2069 27.5375ZM57.6338 13.5512L57.7999 13.3643L57.7986 13.3632L57.6338 13.5512ZM41.0906 11.1631V10.9131H40.8406V11.1631H41.0906ZM41.0906 40.2001H40.8406V40.4501H41.0906V40.2001ZM47.7492 40.2001V40.4501H47.9992V40.2001H47.7492ZM47.7492 30.2256V29.9756H47.4992V30.2256H47.7492ZM47.6239 17.6964V17.9464H48.9882V17.6964V17.4464H47.6239V17.6964ZM48.9882 17.6964V17.9464C50.2454 17.9464 51.5966 18.0199 52.6048 18.7071L52.7456 18.5006L52.8864 18.294C51.7355 17.5095 50.234 17.4464 48.9882 17.4464V17.6964ZM52.7456 18.5006L52.6003 18.704C53.0879 19.0523 53.9072 19.8571 53.9072 21.3322H54.1572H54.4072C54.4072 19.6406 53.4576 18.7019 52.8909 18.2971L52.7456 18.5006ZM54.1572 21.3322H53.9072C53.9072 22.4281 53.4235 23.4024 52.634 24.0075L52.7861 24.206L52.9382 24.4044C53.8569 23.7002 54.4072 22.5763 54.4072 21.3322H54.1572ZM52.7861 24.206L52.6393 24.0036C51.6219 24.7421 50.4099 24.7052 49.3437 24.7052V24.9552V25.2052C50.3692 25.2052 51.7603 25.2595 52.933 24.4083L52.7861 24.206ZM49.3437 24.9552V24.7052H47.6239V24.9552V25.2052H49.3437V24.9552ZM47.6239 24.9552H47.8739V17.6964H47.6239H47.3739V24.9552H47.6239ZM50.6896 30.2256V30.4756C53.9695 30.4756 56.569 29.5284 58.3837 27.7143L58.2069 27.5375L58.0302 27.3607C56.3318 29.0586 53.8725 29.9756 50.6896 29.9756V30.2256ZM58.2069 27.5375L58.3835 27.7145C60.6156 25.487 60.9406 22.4365 60.9406 20.8513H60.6906H60.4406C60.4406 22.3936 60.1197 25.2755 58.0303 27.3606L58.2069 27.5375ZM60.6906 20.8513H60.9406C60.9406 19.1499 60.5389 15.7975 57.7999 13.3643L57.6338 13.5512L57.4678 13.7381C60.049 16.0311 60.4406 19.2061 60.4406 20.8513H60.6906ZM57.6338 13.5512L57.7986 13.3632C55.5526 11.3951 53.1544 10.9131 49.8451 10.9131V11.1631V11.4131C53.0993 11.4131 55.3541 11.886 57.4691 13.7392L57.6338 13.5512ZM49.8451 11.1631V10.9131H41.0906V11.1631V11.4131H49.8451V11.1631ZM41.0906 11.1631H40.8406V40.2001H41.0906H41.3406V11.1631H41.0906ZM41.0906 40.2001V40.4501H47.7492V40.2001V39.9501H41.0906V40.2001ZM47.7492 40.2001H47.9992V30.2256H47.7492H47.4992V40.2001H47.7492ZM47.7492 30.2256V30.4756H50.6896V30.2256V29.9756H47.7492V30.2256Z" fill="#80949F"/>
<path fill-rule="evenodd" clip-rule="evenodd" d="M80.6657 24.8764C79.218 23.5938 77.1972 22.8502 74.9037 22.079C73.2696 21.5104 72.3692 21.1971 71.7689 20.6498C71.2951 20.2476 71.0838 19.811 71.0838 19.2339C71.0838 17.9699 71.9427 16.619 74.3541 16.619C75.9928 16.619 77.3648 17.3197 78.4323 18.7008L78.8561 19.2491L82.3724 14.7733L82.0518 14.4522C79.9013 12.3002 77.0675 11.1631 73.8566 11.1631C67.3783 11.1631 64.4784 15.3776 64.4784 19.5546C64.4784 21.796 65.2778 23.6037 66.8493 24.9252C68.2563 26.1311 69.9722 26.8068 71.618 27.3584L71.8041 27.4201C73.2657 27.9032 74.7772 28.4031 75.68 29.2111C76.3081 29.7882 76.588 30.4154 76.588 31.2444C76.588 33.1445 75.0917 34.4214 72.8647 34.4214C71.1043 34.4214 68.7862 33.5585 67.5598 31.1374L67.239 30.503L62.8684 34.5488L63.1262 34.9134C64.5206 36.8878 67.6671 40.2001 73.072 40.2001C79.0317 40.2001 83.1943 36.3686 83.1943 30.8828C83.1943 27.7451 81.8177 25.8829 80.6657 24.8764" fill="#6B7B84"/>
<path d="M80.6657 24.8764C79.218 23.5938 77.1972 22.8502 74.9037 22.079C73.2696 21.5104 72.3692 21.1971 71.7689 20.6498C71.2951 20.2476 71.0838 19.811 71.0838 19.2339C71.0838 17.9699 71.9427 16.619 74.3541 16.619C75.9928 16.619 77.3648 17.3197 78.4323 18.7008L78.8561 19.2491L82.3724 14.7733L82.0518 14.4522C79.9013 12.3002 77.0675 11.1631 73.8566 11.1631C67.3783 11.1631 64.4784 15.3776 64.4784 19.5546C64.4784 21.796 65.2778 23.6037 66.8493 24.9252C68.2563 26.1311 69.9722 26.8068 71.618 27.3584L71.8041 27.4201C73.2657 27.9032 74.7772 28.4031 75.68 29.2111C76.3081 29.7882 76.588 30.4154 76.588 31.2444C76.588 33.1445 75.0917 34.4214 72.8647 34.4214C71.1043 34.4214 68.7862 33.5585 67.5598 31.1374L67.239 30.503L62.8684 34.5488L63.1262 34.9134C64.5206 36.8878 67.6671 40.2001 73.072 40.2001C79.0317 40.2001 83.1943 36.3686 83.1943 30.8828C83.1943 27.7451 81.8177 25.8829 80.6657 24.8764" stroke="#80949F" stroke-width="0.5"/>
</svg>
