<svg width="9" height="11" viewBox="0 0 9 11" fill="none" xmlns="http://www.w3.org/2000/svg">
<path fill-rule="evenodd" clip-rule="evenodd" d="M2.09343 10.2968L4.59343 7.7968L7.09343 10.2968C7.36957 10.5729 7.81729 10.5729 8.09343 10.2968C8.36957 10.0207 8.36957 9.57294 8.09343 9.2968L5.30054 6.50391C4.91001 6.11338 4.27685 6.11338 3.88632 6.50391L1.09343 9.2968C0.817287 9.57294 0.817287 10.0207 1.09343 10.2968C1.36957 10.5729 1.81729 10.5729 2.09343 10.2968ZM2.09343 4.2968L4.59343 1.7968L7.09343 4.2968C7.36957 4.57294 7.81729 4.57294 8.09343 4.2968C8.36957 4.02066 8.36957 3.57294 8.09343 3.2968L5.30054 0.503906C4.91001 0.113382 4.27685 0.113382 3.88632 0.503905L1.09343 3.2968C0.817287 3.57294 0.817287 4.02066 1.09343 4.2968C1.36957 4.57294 1.81729 4.57294 2.09343 4.2968Z" fill="#41F6D7"/>
</svg>
